<?xml version="1.0" encoding="iso-8859-1"?>
<!-- Uploaded to: SVG Repo, www.svgrepo.com, Generator: SVG Repo Mixer Tools -->
<!DOCTYPE svg PUBLIC "-//W3C//DTD SVG 1.1//EN" "http://www.w3.org/Graphics/SVG/1.1/DTD/svg11.dtd">
<svg fill="#28a745" version="1.1" id="Capa_1" xmlns="http://www.w3.org/2000/svg" xmlns:xlink="http://www.w3.org/1999/xlink" 
	 width="800px" height="800px" viewBox="0 0 29.734 29.734"
	 xml:space="preserve">
<g>
	<g>
		<polygon points="22.516,2.885 11.979,4.742 11.979,14.039 22.513,12.183 26.849,6.771 		"/>
		<path d="M13.419,27.426c0.163-0.092,0.292-0.188,0.292-0.289c0-0.355-1.072-0.658-2.6-0.793V1.731C11.112,0.774,10.34,0,9.383,0
			C8.423,0,7.65,0.774,7.65,1.731v24.612c-1.525,0.135-2.6,0.438-2.6,0.793c0,0.103,0.13,0.197,0.292,0.289
			c-1.485,0.236-2.456,0.599-2.456,1.01c0,0.719,2.906,1.299,6.497,1.299c3.587,0,6.495-0.58,6.495-1.299
			C15.878,28.023,14.905,27.662,13.419,27.426z"/>
	</g>
</g>
</svg>