<?xml version="1.0" encoding="UTF-8" standalone="no" ?>
<!DOCTYPE svg PUBLIC "-//W3C//DTD SVG 1.1//EN" "http://www.w3.org/Graphics/SVG/1.1/DTD/svg11.dtd">
<svg xmlns="http://www.w3.org/2000/svg" xmlns:xlink="http://www.w3.org/1999/xlink" version="1.1" width="1080" height="1080" viewBox="0 0 1080 1080" xml:space="preserve">
<desc>Created with Fabric.js 5.2.4</desc>
<defs>
</defs>
<g transform="matrix(1 0 0 1 540 540)" id="9cd3d9cd-b8d9-45aa-9e34-381e7f8a4c30"  >
<rect style="stroke: none; stroke-width: 1; stroke-dasharray: none; stroke-linecap: butt; stroke-dashoffset: 0; stroke-linejoin: miter; stroke-miterlimit: 4; fill: rgb(255,255,255); fill-rule: nonzero; opacity: 1; visibility: hidden;" vector-effect="non-scaling-stroke"  x="-540" y="-540" rx="0" ry="0" width="1080" height="1080" />
</g>
<g transform="matrix(1 0 0 1 540 540)" id="70af6862-7aaa-4c67-9402-3f88b1be5122"  >
</g>
<g transform="matrix(8.44 0 0 8.44 519.69 539.1)" id="id_101"  >
<path style="stroke: rgb(0,0,0); stroke-width: 0; stroke-dasharray: none; stroke-linecap: butt; stroke-dashoffset: 0; stroke-linejoin: miter; stroke-miterlimit: 4; fill: #28a745; fill-rule: nonzero; opacity: 1;" vector-effect="non-scaling-stroke"  transform=" translate(-64, -64)" d="M 115.68473 1.72924 L 24.30589 1.72924 C 22.19065283484339 1.7295582335827744 20.16217874580547 2.570147721040027 18.666718376383507 4.066084434146805 C 17.171258006961544 5.562021147253583 16.331314581883383 7.590762840764573 16.33167 9.705999999999998 L 16.33167 18.55634 L 9.9416 18.55634 C 6.84709607964683 18.55634 4.338505 21.06493107964683 4.338505 24.159435 C 4.338505 27.253938920353168 6.84709607964683 29.762529999999998 9.9416 29.762529999999998 L 16.33167 29.762529999999998 L 16.33167 58.39691 L 9.9416 58.39691 C 6.84709607964683 58.39691 4.338505 60.905501079646825 4.338505 64.000005 C 4.338505 67.09450892035316 6.84709607964683 69.6031 9.9416 69.6031 L 16.33167 69.6031 L 16.33167 98.23745 L 9.9416 98.23745 C 6.847096079646832 98.23745 4.338505000000003 100.74604107964683 4.338505000000003 103.84054499999999 C 4.338505000000003 106.93504892035315 6.847096079646832 109.44363999999999 9.9416 109.44363999999999 L 16.33167 109.44363999999999 L 16.33167 118.29651999999999 C 16.332034448621044 122.70041236488329 19.901997636044612 126.27038450606832 24.305889999999998 126.27075999999998 L 115.68473 126.27075999999998 C 117.79996981129473 126.27111276552382 119.82871299453952 125.43116574318945 121.32464970755002 123.93570162312605 C 122.82058642056055 122.44023750306265 123.66117441816859 120.41175981716914 123.66149 118.29651999999999 L 123.66149 9.706 C 123.66169159923301 7.5903699160953835 122.82135010855913 5.561332662647165 121.32537372295597 4.065356277044019 C 119.82939733735283 2.5693798914408736 117.80036008390462 1.7290384007669957 115.68473 1.729239999999999 Z M 37.575 100.71045 C 37.67218444689974 95.11147795118751 38.09311396275774 89.52281291610174 38.835679999999954 83.97245000000004 C 39.19317885537943 81.88483912468438 40.522736147583814 80.09192375156172 42.41657 79.14359999999999 C 48.64875000000001 76.03643 62.325390000000006 71.44953999999998 62.325390000000006 71.44953999999998 L 62.325390000000006 66.934 L 61.945910000000005 66.64874999999999 C 59.292004567675384 64.61637259801385 57.51605178459934 61.64580132693175 56.98212 58.346 L 56.90572 57.862089999999995 L 56.53389 57.862089999999995 C 54.48590374793808 57.86009070912505 52.64230829224805 56.620288975050634 51.868 54.72432 C 51.41523612039929 53.90849506420594 51.177704444603705 52.99080096769844 51.177800000000005 52.05776 C 51.177756543127664 51.41663689838484 51.29962784632424 50.781353206070285 51.53692 50.18576 C 51.65519938115195 49.533982099746346 52.017746319265854 48.951907652457145 52.55057 48.558330000000005 L 53.81127 47.794270000000004 L 53.49545 46.421510000000005 C 51.2211 36.4913 58.91263 27.536510000000003 69.25289 27.294570000000004 C 69.50247999999999 27.289490000000004 69.74951999999999 27.289490000000004 69.99911999999999 27.289490000000004 C 70.24105999999999 27.289490000000004 70.49065999999999 27.289490000000004 70.74534999999999 27.294570000000004 C 81.07797 27.536570000000005 88.77712 36.4913 86.49767999999999 46.421510000000005 L 86.187 47.79432 L 87.4477 48.55838 C 87.97648114392742 48.955676998753304 88.33794976885079 49.53602019833803 88.46135 50.18581 C 88.69456434009517 50.78241593049255 88.8146116282404 51.41724226780296 88.81535 52.057809999999996 C 88.81473841412736 52.990119112001906 88.57910831598453 53.907229932897486 88.13024 54.72436999999999 C 87.35482548920565 56.6217285050014 85.50893187966696 57.86170190587013 83.45924 57.86209999999999 L 83.08485999999999 57.86209999999999 L 83.011 58.346 C 82.48110529874373 61.64603586212662 80.70646754152754 64.61744010980782 78.05227 66.64876 L 77.67278999999999 66.93401 L 77.67278999999999 71.44961 C 77.67278999999999 71.44961 91.34433999999999 76.03649 97.5765 79.14367000000001 C 99.47163107684439 80.09154946702918 100.80295256349558 81.88428559664871 101.1625 83.97252000000002 C 101.9040769364445 89.52286847657557 102.3224656162972 95.11162369254787 102.41555000000002 100.71052000000005 Z" stroke-linecap="round" />
</g>
</svg>