<?xml version="1.0" encoding="UTF-8"?>
<svg id="Layer_1" data-name="Layer 1" xmlns="http://www.w3.org/2000/svg" viewBox="0 0 48 48">
  <path fill="#28a745" d="m43.5,21.5c-1.023,0-1.901.619-2.288,1.5h-15.212v-4h9.18c.525,0,1.038-.213,1.407-.583l2.441-2.442c.282.11.586.176.907.176,1.379,0,2.5-1.121,2.5-2.5s-1.121-2.5-2.5-2.5-2.5,1.121-2.5,2.5c0,.322.066.628.178.911l-2.433,2.437h-9.18v-4h3.27c.876,0,1.641-.558,1.901-1.381l.813-2.503c1.257-.131,2.243-1.183,2.243-2.474,0-1.379-1.121-2.5-2.5-2.5s-2.5,1.121-2.5,2.5c0,.745.334,1.406.852,1.865l-.81,2.493h-3.27v-2.811c0-3.129-2.251-5.769-5.236-6.141-1.621-.204-3.22.243-4.484,1.256-.938.751-1.627,1.775-1.981,2.914-.95-.233-1.944-.281-2.933-.134-3.115.461-5.682,2.94-6.24,6.03-.357,1.983.079,3.988,1.179,5.604-2.595,1.213-4.304,3.821-4.304,6.783,0,2.941,1.677,5.544,4.269,6.772-.356,1.139-.357,2.325.004,3.484.579,1.857,2.089,3.376,3.941,3.963.923.293,1.867.354,2.787.192-.015,1.061.227,2.102.723,3.109,1.042,2.118,3.082,3.619,5.322,3.917.316.042.632.063.945.063,1.439,0,2.84-.436,4.021-1.265h0c1.244-.874,1.987-2.365,1.987-3.991v-3.745h3.269s.811,2.493.811,2.493c-.518.458-.852,1.12-.852,1.865,0,1.379,1.121,2.5,2.5,2.5s2.5-1.121,2.5-2.5c0-1.291-.987-2.343-2.243-2.474l-.811-2.495c-.263-.831-1.027-1.388-1.903-1.388h-3.27v-4l9.173-.003,2.44,2.44c-.111.283-.178.589-.178.911,0,1.379,1.121,2.5,2.5,2.5s2.5-1.121,2.5-2.5-1.121-2.5-2.5-2.5c-.321,0-.625.066-.907.176l-2.44-2.441c-.37-.371-.883-.584-1.408-.584h-9.18v-4h15.212c.387.881,1.265,1.5,2.288,1.5,1.379,0,2.5-1.121,2.5-2.5s-1.121-2.5-2.5-2.5ZM14.902,7.883c.55-.094,1.063.268,1.158.812.338,1.915,1.994,3.305,3.939,3.305.232,0,.466-.021.693-.061.554-.1,1.063.266,1.159.81.097.544-.266,1.063-.81,1.159-.343.061-.693.092-1.043.092-2.918,0-5.403-2.085-5.908-4.958-.097-.544.267-1.062.811-1.158Zm-1.27,13.021c-.373.057-.749.096-1.132.096-1.314,0-2.611-.347-3.75-1.004-.479-.276-.643-.888-.366-1.366.275-.479.889-.643,1.366-.366.835.482,1.786.737,2.75.737,1.63,0,3.166-.716,4.214-1.965.354-.421.984-.479,1.408-.123.423.355.479.986.123,1.409-.706.841-1.574,1.502-2.539,1.959.841,1.234,1.294,2.689,1.294,4.22,0,.552-.447,1-1,1s-1-.448-1-1c0-1.344-.497-2.593-1.368-3.596Zm7.235,13.172c-.284-.05-.575-.076-.867-.076-1.781,0-3.44.958-4.33,2.5-.186.321-.521.5-.867.5-.17,0-.342-.043-.499-.134-.479-.276-.643-.888-.366-1.366.514-.89,1.218-1.632,2.035-2.207.008-.097.028-.202.028-.293,0-1.268-.582-2.433-1.597-3.197-.441-.332-.529-.959-.197-1.4.331-.44.957-.53,1.4-.197,1.337,1.007,2.172,2.479,2.354,4.111.654-.201,1.338-.317,2.039-.317.408,0,.818.036,1.217.107.544.096.906.615.81,1.159-.097.543-.611.906-1.159.81Z"/>
</svg>